<svg aria-hidden="true" style="position:absolute;width:0;height:0;overflow:hidden" xmlns="http://www.w3.org/2000/svg">
  <defs>
    <symbol id="icon-mute" viewBox="0 0 34 32">
      <path fill="#ec1119" style="fill:var(--color1, #ec1119)" d="M33.185 16c0 8.509-6.898 15.407-15.407 15.407S2.371 24.509 2.371 16 9.269.593 17.778.593 33.185 7.491 33.185 16z"/>
      <path fill="#fff" style="fill:var(--color2, #fff)" d="M23.704 16a4.712 4.712 0 0 1-1.355 3.318.595.595 0 0 1-1.011-.41.593.593 0 0 1 .163-.419 3.555 3.555 0 0 0 0-4.976.593.593 0 0 1 .848-.829 4.71 4.71 0 0 1 1.355 3.317zm-.188-5.766a.595.595 0 0 0-.838.027.597.597 0 0 0 .027.838A6.576 6.576 0 0 1 24.888 16a6.6 6.6 0 0 1-2.183 4.901.592.592 0 1 0 .81.864 7.79 7.79 0 0 0 2.558-5.766 7.785 7.785 0 0 0-2.558-5.766zm-3.368-.207v11.947a1.193 1.193 0 0 1-1.864.971l-4.84-3.388H11.26a1.776 1.776 0 0 1-1.778-1.778v-3.556a1.776 1.776 0 0 1 1.778-1.778h2.184l4.84-3.388a1.19 1.19 0 0 1 1.224-.072 1.189 1.189 0 0 1 .642 1.043zm-7.111 3.603h-1.778a.595.595 0 0 0-.593.593v3.556a.595.595 0 0 0 .593.593h1.778v-4.741zm5.93 8.345-.004-11.947-4.741 3.319v5.309l4.744 3.32z"/>
      <path fill="none" stroke="#fff" style="stroke:var(--color2, #fff)" stroke-width="1.778" d="m32.889 1.185-32 29.926"/>
    </symbol>
    <symbol id="icon-unmute" viewBox="0 0 32 32">
      <path fill="#ec1119" style="fill:var(--color1, #ec1119)" d="M32 16c0 8.837-7.163 16-16 16S0 24.837 0 16 7.163 0 16 0s16 7.163 16 16z"/>
      <path fill="#fff" style="fill:var(--color2, #fff)" d="M22.154 16a4.894 4.894 0 0 1-1.407 3.446.613.613 0 0 1-.864.002.614.614 0 0 1-.015-.864 3.693 3.693 0 0 0 0-5.168.612.612 0 0 1 .015-.864.617.617 0 0 1 .864.002 4.894 4.894 0 0 1 1.407 3.445zm-.195-5.988a.616.616 0 0 0-.842.898 6.84 6.84 0 0 1 1.675 7.876 6.833 6.833 0 0 1-1.675 2.304.615.615 0 0 0 .842.898 8.074 8.074 0 0 0 1.962-9.262 8.091 8.091 0 0 0-1.962-2.713zm-3.497-.215v12.406a1.237 1.237 0 0 1-.667 1.084 1.247 1.247 0 0 1-1.27-.075l-5.026-3.519H9.231a1.849 1.849 0 0 1-1.846-1.846v-3.692a1.849 1.849 0 0 1 1.846-1.846h2.268l5.026-3.519a1.238 1.238 0 0 1 1.936 1.008zm-7.385 3.741H9.231a.616.616 0 0 0-.615.615v3.692a.616.616 0 0 0 .615.615h1.846v-4.923zm6.157 8.666L17.23 9.797l-4.923 3.446v5.513l4.927 3.447z"/>
    </symbol>
  </defs>
</svg>
